<?xml version="1.0" encoding="UTF-8" standalone="no"?>
<!-- Created with Inkscape (http://www.inkscape.org/) -->

<svg
   width="256px"
   height="256px"
   viewBox="0 0 256 256"
   version="1.1"
   id="SVGRoot"
   sodipodi:docname="item_card.svg"
   xml:space="preserve"
   inkscape:version="1.2.2 (732a01da63, 2022-12-09)"
   xmlns:inkscape="http://www.inkscape.org/namespaces/inkscape"
   xmlns:sodipodi="http://sodipodi.sourceforge.net/DTD/sodipodi-0.dtd"
   xmlns="http://www.w3.org/2000/svg"
   xmlns:svg="http://www.w3.org/2000/svg"><sodipodi:namedview
     id="namedview5828"
     pagecolor="#ffffff"
     bordercolor="#666666"
     borderopacity="1"
     inkscape:showpageshadow="0"
     inkscape:pageopacity="1.0"
     inkscape:pagecheckerboard="1"
     inkscape:deskcolor="#505050"
     inkscape:document-units="px"
     showgrid="false"
     inkscape:zoom="2"
     inkscape:cx="68"
     inkscape:cy="198.5"
     inkscape:window-width="1920"
     inkscape:window-height="1057"
     inkscape:window-x="-8"
     inkscape:window-y="-8"
     inkscape:window-maximized="1"
     inkscape:current-layer="layer1"
     inkscape:pageshadow="0"
     showguides="true"
     inkscape:lockguides="false"><sodipodi:guide
       position="6,42.097656"
       orientation="1,0"
       id="guide7058"
       inkscape:locked="false" /><sodipodi:guide
       position="250.00391,40.207031"
       orientation="1,0"
       id="guide7060"
       inkscape:locked="false" /><sodipodi:guide
       position="43.985796,249.99597"
       orientation="0,-1"
       id="guide7062"
       inkscape:locked="false" /><sodipodi:guide
       position="32.339844,6"
       orientation="0,-1"
       id="guide7064"
       inkscape:locked="false" /><sodipodi:guide
       position="0,256"
       orientation="0,256"
       id="guide7066"
       inkscape:locked="false" /><sodipodi:guide
       position="256,256"
       orientation="256,0"
       id="guide7068"
       inkscape:locked="false" /><sodipodi:guide
       position="256,0"
       orientation="0,-256"
       id="guide7070"
       inkscape:locked="false" /><sodipodi:guide
       position="0,0"
       orientation="-256,0"
       id="guide7072"
       inkscape:locked="false" /><sodipodi:guide
       position="47.046875,244"
       orientation="0,-1"
       id="guide7074"
       inkscape:locked="false" /><sodipodi:guide
       position="44.265625,194"
       orientation="0,-1"
       id="guide7076"
       inkscape:locked="false" /><sodipodi:guide
       position="14,225.24219"
       orientation="1,0"
       id="guide7078"
       inkscape:locked="false" /><sodipodi:guide
       position="241.99625,216.02637"
       orientation="1,0"
       id="guide7080"
       inkscape:locked="false" /><sodipodi:guide
       position="220.125,46.000001"
       orientation="0,-1"
       id="guide25755"
       inkscape:locked="false" /><sodipodi:guide
       position="206,29.750001"
       orientation="1,0"
       id="guide25757"
       inkscape:locked="false" /></sodipodi:namedview><defs
     id="defs5823" /><g
     inkscape:label="Layer 1"
     inkscape:groupmode="layer"
     id="layer1"><path
       style="display:inline;fill:#e7e5e3;fill-opacity:1;stroke:none;stroke-width:1px;stroke-linecap:butt;stroke-linejoin:miter;stroke-opacity:1"
       d="M 0,0 V 256 H 256 V 0 Z"
       id="background"
       inkscape:label="background"
       sodipodi:nodetypes="ccccc" /><path
       style="display:inline;fill:#c1a191;stroke:none;stroke-width:1px;stroke-linecap:butt;stroke-linejoin:miter;stroke-opacity:1;fill-opacity:1"
       d="M 8.5,8.5 C 6.1724403,10.783366 6,14 6,14 v 228 c 0,0 0.020632,3.08313 2.5,5.5 2.479368,2.41687 5.5,2.5 5.5,2.5 h 228 c 0,0 2.99566,0.22531 5.5,-2.5 2.50433,-2.7253 2.5,-5.5 2.5,-5.5 V 14 c 0,0 -0.21663,-2.64211 -2.5,-5.5 C 245.21664,5.6421101 242,6 242,6 H 14 c 0,0 -3.17244,0.2166343 -5.5,2.5 z"
       id="frame"
       sodipodi:nodetypes="zcczcczcczccz"
       inkscape:label="frame" /><path
       style="fill:#e5e5e5;stroke:none;stroke-width:1px;stroke-linecap:butt;stroke-linejoin:miter;stroke-opacity:1;fill-opacity:1"
       d="m 17.677669,238.47176 57.629203,-61.34151 -71.7713378,-12.02082 0.3535529,-6.36396 63.9931639,-13.43503 -47.729708,-36.416 59.043416,3.88909 -43.133513,-64.700269 72.124894,46.315494 10.6066,-47.376154 13.43503,44.547727 53.74011,-58.33631 -11.66726,66.821592 67.5287,-16.263457 -57.98276,43.487067 64.34672,7.42462 -58.33631,29.34493 42.4264,34.29468 -61.16473,-6.71751 33.23402,61.16472 -10.25305,1e-5 -59.39697,-43.13351 -34.29468,43.13352 -15.556347,-0.17678 17.677667,-59.9273 z"
       id="star"
       sodipodi:nodetypes="cccccccccccccccccccccccccc"
       inkscape:label="star" /><path
       style="display:inline;fill:#e5e5e5;stroke:none;stroke-width:1px;stroke-linecap:butt;stroke-linejoin:miter;stroke-opacity:1;fill-opacity:1"
       d="M 16.5,14 C 13.807261,16.37864 14,18 14,18 v 38 c 0,0 0.150926,2.23734 2.5,4 2.349074,1.76266 5.5,2 5.5,2 h 212 c 0,0 2.95205,0.04992 5.5,-2 2.54795,-2.049922 2.5,-4 2.5,-4 V 18 c 0,0 -0.15475,-1.822108 -2.5,-4 -2.34525,-2.177892 -5.5,-2 -5.5,-2 H 22 c 0,0 -2.807261,-0.37864 -5.5,2 z"
       id="name"
       sodipodi:nodetypes="zcczcczcczccz"
       inkscape:label="name" /><path
       id="x2"
       style="display:inline;opacity:1;fill:#e5e5e5;fill-opacity:1;stroke:none"
       d="m 255.08878,233.87556 c 0,6.5901 -2.75031,12.55631 -7.19696,16.875 -4.44665,4.31869 -10.1477,2.30528 -16.93306,2.30528 -6.78536,0 -13.3703,2.01342 -17.81695,-2.30527 -4.44665,-4.31869 -7.19696,-10.28491 -7.19696,-16.87501 0,-13.1802 11.00125,-23.86486 24.57197,-23.86485 13.57072,0 24.57196,10.68466 24.57196,23.86485 z"
       sodipodi:nodetypes="sssssss"
       inkscape:label="x2" /></g></svg>
